<?xml version="1.0" encoding="utf-8"?>
<!-- Generator: Adobe Illustrator 22.0.1, SVG Export Plug-In . SVG Version: 6.00 Build 0)  -->
<svg version="1.1" id="Drizzle" xmlns="http://www.w3.org/2000/svg" xmlns:xlink="http://www.w3.org/1999/xlink" x="0px" y="0px"
	 viewBox="0 0 512 512" style="enable-background:new 0 0 512 512;" xml:space="preserve">
<style type="text/css">
	.st0{fill:#ECEDED;}
	.st1{fill:#C6C7C8;}
	.st2{fill:#3C64FF;}
	.st3{fill:#28B4FF;}
</style>
<title>Icon_Drizzle</title>
<g>
	<path class="st0" d="M129.6,327.2c-33.1-0.7-59.5-28.1-58.8-61.2c0.7-33.1,28.1-59.5,61.2-58.8c0.5,0-0.8-9.4-0.8-14.4
		c0-26.5,21.5-48,48-48c9,0,17.8,2.5,25.4,7.3c8.3-43.4,50.3-71.8,93.7-63.5c29.2,5.6,52.9,26.9,61.5,55.4
		c50.4,6.6,85.9,52.7,79.4,103.1c-6,45.8-44.9,80.1-91.1,80.1L129.6,327.2z"/>
	<path class="st1" d="M417.2,180.9l6.3-4.9c-4.9-6.2-10.4-11.7-16.6-16.5l-4.9,6.3C407.7,170.1,412.8,175.2,417.2,180.9z"/>
	<path class="st1" d="M431.6,188.1c-1.1-1.9-3.5-2.6-5.5-1.5s-2.6,3.5-1.5,5.5c23.9,42.3,8.9,96-33.5,119.9
		c-13.2,7.4-28.1,11.3-43.2,11.3H132c-30.9,0-56-25.1-56-56c0-30.9,25.1-56,56-56c14.8,0,29.1,5.9,39.6,16.4c1.6,1.6,4.1,1.6,5.7,0
		s1.6-4.1,0-5.7l0,0c-11-11.1-25.7-17.7-41.3-18.6c0-0.6-0.1-1.2-0.2-2c-0.3-2.8-0.6-6.3-0.6-8.6c0-24.3,19.7-44,44-44
		c8.2,0,16.3,2.3,23.3,6.7l5,3.1l1.1-5.7c7.9-41.2,47.7-68.2,88.9-60.4c27.7,5.3,50.3,25.6,58.4,52.6l0.8,2.5l2.6,0.3
		c10.9,1.4,21.5,4.9,31.1,10.2c1.9,1.1,4.3,0.5,5.5-1.4c1.1-1.9,0.5-4.3-1.4-5.5c-0.1-0.1-0.2-0.1-0.3-0.2
		c-9.8-5.4-20.4-9-31.5-10.7c-5.5-16-15.6-30.1-29.1-40.3c-37.1-27.9-89.7-20.5-117.6,16.6c-6.6,8.7-11.4,18.7-14.2,29.3
		c-25.8-12.5-56.9-1.8-69.5,24.1c-3.4,7.1-5.2,14.8-5.2,22.7c0,2.6,0.3,6.2,0.6,9.3c0,0.4,0.1,0.8,0.1,1.3
		c-35.3,1.8-62.4,31.9-60.6,67.2c1.8,34.3,30.4,61.1,64.7,60.7h216c53,0,96-43,96-96C444,218.7,439.8,202.5,431.6,188.1L431.6,188.1
		z"/>
	<path class="st2" d="M237.1,392.7c-2.2,0-4-1.8-4-4v-23.9c0-2.2,1.8-4,4-4s4,1.8,4,4v23.9C241.1,390.9,239.3,392.7,237.1,392.7z"/>
	<rect x="233.1" y="407.6" class="st2" width="8" height="17.5"/>
	<path class="st2" d="M293.5,425.2c-2.2,0-4-1.8-4-4v-23.9c0-2.2,1.8-4,4-4s4,1.8,4,4v23.9C297.5,423.4,295.7,425.2,293.5,425.2z"/>
	<rect x="289.5" y="360.8" class="st2" width="8" height="17.5"/>
	<path class="st3" d="M188.6,401.9c0,12.4-10.1,22.5-22.5,22.5s-22.5-10.1-22.5-22.5c0-12.6,22.5-37.2,22.5-37.2
		S188.6,389.3,188.6,401.9z"/>
	<path class="st2" d="M166.1,428.8c-14.7-0.1-26.6-12.1-26.5-26.8c0-13.8,21.1-37.2,23.6-39.9c1.5-1.6,4-1.7,5.7-0.2
		c0.1,0.1,0.2,0.2,0.2,0.2c2.4,2.6,23.6,26.1,23.6,39.9C192.7,416.7,180.9,428.7,166.1,428.8z M166.1,370.8
		c-8.1,9.5-18.5,24-18.5,31.1c0,10.2,8.3,18.5,18.5,18.5s18.5-8.3,18.5-18.5C184.6,394.8,174.3,380.3,166.1,370.8L166.1,370.8z"/>
	<path class="st2" d="M349.9,392.7c-2.2,0-4-1.8-4-4v-23.9c0-2.2,1.8-4,4-4s4,1.8,4,4v23.9C353.9,390.9,352.1,392.7,349.9,392.7z"/>
	<rect x="345.9" y="407.6" class="st2" width="8" height="17.5"/>
</g>
</svg>
