<svg xmlns="http://www.w3.org/2000/svg" viewBox="0 0 64 64"><defs><style>.cls-1{fill:none;}.cls-2{fill:#009ede;}.cls-3{fill:#0083ca;}.cls-4{fill:#fff;}</style></defs><g id="_44.cloud" data-name="44.cloud"><path class="cls-1" d="M20.57,9.37a15.61,15.61,0,0,0-2.47,3.56h.11A15.16,15.16,0,0,1,20.57,9.37Z"/><path class="cls-1" d="M21,8.94,21,8.87Z"/><path class="cls-2" d="M15.83,35.4l-.39,0Z"/><path class="cls-2" d="M44.16,12.81l.12.22Z"/><path class="cls-2" d="M14.79,35.26l-.48-.1Z"/><path class="cls-2" d="M13.82,35l-.56-.16Z"/><path class="cls-2" d="M13,34.76a11.51,11.51,0,0,1-3-1.6C7.77,25.64,14.59,18,22.41,19.07c3.33-7.47,13.07-10.93,20.53-7.48l.23-.24.28.38a22.1,22.1,0,0,0-2.76-3,5.31,5.31,0,0,1-.2-1.9c-7.31-5-18.69-2.13-22.28,6.07H18.1c-.08.17-.17.33-.25.49C4.41,12,.55,30.2,13,34.76Z"/><path class="cls-3" d="M54.3,17c-2.08-1-4-2.38-6.54-2.22-.84-.1-1.69.39-2.44,0-.84-1-1.22-2.45-2.15-3.47l-.23.24c-7.46-3.45-17.2,0-20.53,7.48C14.59,18,7.77,25.64,10,33.16a11.87,11.87,0,0,0,7,2.3H47.76a10.89,10.89,0,0,0,7.77-18.84A4,4,0,0,1,54.3,17Z"/><path class="cls-4" d="M35.24,7.75c-1.65-.78-9.72-.6-9,2.14a1,1,0,0,0,.9.55,11,11,0,0,1,7.51-.77A1,1,0,0,0,35.24,7.75Z"/><path class="cls-4" d="M23.65,10.78c-.59.5-1.21,1.36-.46,2s1.38,0,1.88-.6C26,11.29,24.56,9.84,23.65,10.78Z"/><path class="cls-4" d="M19.86,17A8.42,8.42,0,0,0,10,19.2a1,1,0,1,0,1.52,1.3,6.41,6.41,0,0,1,4.89-2.27c1.28-.31,3.15,1.47,3.95.06A1,1,0,0,0,19.86,17Z"/><path class="cls-4" d="M9.39,22.08C8,21.86,8.05,23.68,8,24.64a1,1,0,0,0,1,1c1.29,0,.91-1.51,1.15-2.37A1,1,0,0,0,9.39,22.08Z"/><path d="M47.46,13.07a11.34,11.34,0,0,0-1.3.08C40.9,1.22,23.1,1.22,17.84,13.15,1.72,12,.38,35.54,16.54,36.22H47.46C62.74,35.73,62.76,13.55,47.46,13.07Zm0,21.15H16.54A9.59,9.59,0,0,1,7,24.64C7,14.3,21.42,11.42,25.38,21a1,1,0,0,0,1.85-.77,11.64,11.64,0,0,0-7.37-6.63c4.63-9.81,19.65-9.81,24.28,0a11.64,11.64,0,0,0-7.37,6.63,1,1,0,1,0,1.85.77c4-9.54,18.43-6.66,18.41,3.68A9.59,9.59,0,0,1,47.46,34.22Z"/><path d="M22.32,42.4a1,1,0,0,0-1,1V58.88a1,1,0,0,0,2,0V43.4A1,1,0,0,0,22.32,42.4Z"/><path d="M27.16,38.53a1,1,0,0,0-1,1V55a1,1,0,0,0,2,0V39.53A1,1,0,0,0,27.16,38.53Z"/><path d="M32,42.4a1,1,0,0,0-1,1V58.88a1,1,0,0,0,2,0V43.4A1,1,0,0,0,32,42.4Z"/><path d="M36.84,38.53a1,1,0,0,0-1,1V55a1,1,0,0,0,2,0V39.53A1,1,0,0,0,36.84,38.53Z"/><path d="M41.68,42.4a1,1,0,0,0-1,1V58.88a1,1,0,0,0,2,0V43.4A1,1,0,0,0,41.68,42.4Z"/></g></svg>