<?xml version="1.0" encoding="utf-8"?>
<!-- Generator: Adobe Illustrator 22.0.1, SVG Export Plug-In . SVG Version: 6.00 Build 0)  -->
<svg version="1.1" id="Sleet_Rain_2" xmlns="http://www.w3.org/2000/svg" xmlns:xlink="http://www.w3.org/1999/xlink" x="0px"
	 y="0px" viewBox="0 0 512 512" style="enable-background:new 0 0 512 512;" xml:space="preserve">
<style type="text/css">
	.st0{fill:#ECEDED;}
	.st1{fill:#C6C7C8;}
	.st2{fill:#28B4FF;}
	.st3{fill:#3C64FF;}
</style>
<title>Icon_Sleet_Rain_B</title>
<g>
	<path class="st0" d="M129.6,320.8c-33.1-0.7-59.5-28.1-58.8-61.2c0.7-33.1,28.1-59.5,61.2-58.8l0,0c0.5,0-0.8-9.4-0.8-14.4
		c0-26.5,21.5-48,48-48c9,0,17.8,2.5,25.4,7.3c8.3-43.4,50.2-71.8,93.6-63.5c29.2,5.6,52.9,26.9,61.5,55.4
		c50.4,6.2,86.3,52.1,80.1,102.5c-5.7,46.3-45.2,81-91.8,80.8L129.6,320.8z"/>
	<path class="st1" d="M417.2,174.5l6.3-4.9c-4.9-6.2-10.4-11.7-16.6-16.6l-4.9,6.3C407.7,163.8,412.8,168.9,417.2,174.5z"/>
	<path class="st1" d="M431.6,181.7c-1.1-1.9-3.5-2.6-5.5-1.5s-2.6,3.5-1.5,5.5c23.9,42.3,8.9,96-33.5,119.9
		c-13.2,7.4-28.1,11.3-43.2,11.3H132c-30.9,0-56-25.1-56-56c0-30.9,25.1-56,56-56c14.8,0,29.1,5.9,39.6,16.4c1.6,1.6,4.1,1.6,5.7,0
		s1.6-4.1,0-5.7c-11-11.1-25.7-17.7-41.3-18.6c0-0.6-0.1-1.2-0.2-2c-0.3-2.8-0.6-6.3-0.6-8.6c0-24.3,19.7-44,44-44
		c8.2,0,16.3,2.3,23.3,6.7l5,3.1l1.1-5.7c7.9-41.2,47.7-68.2,88.9-60.4c27.7,5.3,50.3,25.6,58.4,52.6l0.8,2.5l2.6,0.3
		c10.9,1.4,21.5,4.8,31.1,10.2c1.9,1.1,4.3,0.5,5.5-1.4c1.1-1.9,0.5-4.3-1.4-5.5c-0.1-0.1-0.2-0.1-0.3-0.2
		c-9.8-5.4-20.5-9-31.5-10.7c-5.5-16-15.6-30.1-29.1-40.3c-37.1-27.9-89.7-20.4-117.6,16.6c-6.6,8.8-11.4,18.7-14.2,29.4
		c-25.8-12.5-56.9-1.8-69.5,24.1c-3.4,7.1-5.2,14.8-5.2,22.7c0,2.6,0.3,6.2,0.6,9.3c0,0.4,0.1,0.8,0.1,1.3
		c-35.2,2.8-61.6,33.5-58.8,68.8c2.6,33,29.9,58.6,62.9,59h216c53,0,96-43,96-96C444,212.3,439.8,196.1,431.6,181.7z"/>
	<path class="st2" d="M272.8,367.7c1-1,0.9-2.6-0.1-3.5c-1-0.9-2.5-0.9-3.5,0l-4.2,4.2V360h-5v8.4l-4.2-4.2c-1-1-2.6-0.9-3.5,0.1
		c-0.9,1-0.9,2.5,0,3.5l4.2,4.2h-8.4v5h8.4l-4.2,4.2c-1,1-1,2.6,0,3.5c1,1,2.6,1,3.5,0l4.2-4.2v8.4h5v-8.4l4.2,4.2c1,1,2.6,1,3.5,0
		c1-1,1-2.6,0-3.5c0,0,0,0,0,0l-4.2-4.2h8.4v-5h-8.4L272.8,367.7z"/>
	<path class="st2" d="M272.8,411.6c1-1,0.9-2.6-0.1-3.5c-1-0.9-2.5-0.9-3.5,0l-4.2,4.2v-8.4h-5v8.4l-4.2-4.2c-1-1-2.6-0.9-3.5,0.1
		c-0.9,1-0.9,2.5,0,3.5l4.2,4.2h-8.4v5h8.4l-4.2,4.2c-1,1-1,2.5-0.1,3.5c1,1,2.5,1,3.5,0.1c0,0,0,0,0.1-0.1l4.2-4.2v8.4h5v-8.4
		l4.2,4.2c1,1,2.6,0.9,3.5-0.1c0.9-1,0.9-2.5,0-3.5l-4.2-4.2h8.4v-5h-8.4L272.8,411.6z"/>
	<path class="st2" d="M324.9,371.9l4.2-4.2c1-1,0.9-2.6-0.1-3.5c-1-0.9-2.5-0.9-3.5,0l-4.2,4.2V360h-5v8.4l-4.2-4.2
		c-1-0.9-2.6-0.8-3.5,0.2c-0.8,0.9-0.8,2.4,0,3.3l4.2,4.2h-8.4v5h8.4l-4.2,4.2c-1,1-1,2.6,0,3.5c0,0,0,0,0,0
		c0.5,0.5,1.1,0.7,1.8,0.7c0.7,0,1.3-0.3,1.8-0.7l4.2-4.2v8.4h5v-8.4l4.2,4.2c1,1,2.6,1,3.5,0s1-2.6,0-3.5l-4.2-4.2h8.4v-5
		L324.9,371.9z"/>
	<path class="st2" d="M329.1,411.6c1-1,0.9-2.6-0.1-3.5c-1-0.9-2.5-0.9-3.5,0l-4.2,4.2v-8.4h-5v8.4l-4.2-4.2c-1-0.9-2.6-0.8-3.5,0.2
		c-0.8,0.9-0.8,2.4,0,3.3l4.2,4.2h-8.4v5h8.4l-4.2,4.2c-1,1-1,2.6,0,3.5c0.5,0.5,1.1,0.7,1.7,0.7c0.7,0,1.3-0.3,1.8-0.7l4.2-4.2v8.4
		h5v-8.4l4.2,4.2c1,1,2.5,1,3.5,0.1c1-1,1-2.5,0.1-3.5c0,0,0,0-0.1-0.1l-4.2-4.2h8.4v-5h-8.4L329.1,411.6z"/>
	<path class="st3" d="M174.9,391.6c-2.2,0-4-1.8-4-4v-23.9c0-2.2,1.8-4,4-4s4,1.8,4,4v23.9C178.9,389.8,177.1,391.6,174.9,391.6z"/>
	<rect x="170.9" y="411.5" class="st3" width="8" height="17.5"/>
	<path class="st3" d="M215.6,429.1c-2.2,0-4-1.8-4-4v-23.9c0-2.2,1.8-4,4-4s4,1.8,4,4v23.9C219.6,427.3,217.8,429.1,215.6,429.1z"/>
	<rect x="211.6" y="359.7" class="st3" width="8" height="17.5"/>
</g>
</svg>
