<?xml version="1.0" encoding="utf-8"?>
<!-- Generator: Adobe Illustrator 22.0.1, SVG Export Plug-In . SVG Version: 6.00 Build 0)  -->
<svg version="1.1" id="Capa_7_copia" xmlns="http://www.w3.org/2000/svg" xmlns:xlink="http://www.w3.org/1999/xlink" x="0px"
	 y="0px" viewBox="0 0 512 512" style="enable-background:new 0 0 512 512;" xml:space="preserve">
<style type="text/css">
	.st0{fill:#B07F48;}
	.st1{fill:#7C4D25;}
	.st2{fill:#28B4FF;}
	.st3{fill:#00FF64;}
	.st4{fill:#00632E;}
</style>
<title>Icon_Wind_B</title>
<g>
	<g>
		<path class="st0" d="M176.7,380.5c-4.7-6.4-9.3-12.9-14-19.3c-21.5,15.5-34.2,40.5-34.2,67h23.9
			C152.4,409.3,161.4,391.5,176.7,380.5z"/>
		<path class="st1" d="M152.4,432.2h-23.9c-2.2,0-4-1.8-4-4c-0.1-27.8,13.3-54,35.8-70.3c1.8-1.3,4.3-0.9,5.6,0.9
			c4.7,6.4,9.3,12.9,14,19.3c0.6,0.9,0.9,1.9,0.7,3c-0.2,1-0.7,2-1.6,2.6c-14.2,10.3-22.7,26.9-22.6,44.4c0,1.1-0.4,2.1-1.2,2.8
			C154.5,431.7,153.5,432.2,152.4,432.2z M132.6,424.2h15.9c1.1-17.3,9.3-33.5,22.7-44.5c-3.1-4.3-6.2-8.6-9.3-12.9
			C144.4,380.8,133.7,401.8,132.6,424.2z"/>
	</g>
	<g>
		<path class="st0" d="M350.4,357.2l-20.9-28.7c-32,23.1-51,60.2-50.8,99.7h35.5C314.1,400.1,327.5,373.6,350.4,357.2z"/>
		<path class="st1" d="M314.2,432.2h-35.5c-2.2,0-4-1.8-4-4c-0.1-40.7,19.5-79.2,52.5-103c1.8-1.3,4.3-0.9,5.6,0.9l20.9,28.7
			c0.6,0.9,0.9,1.9,0.7,3s-0.7,2-1.6,2.6c-21.7,15.7-34.6,41-34.5,67.8c0,1.1-0.4,2.1-1.2,2.8C316.2,431.8,315.2,432.2,314.2,432.2z
			 M282.7,424.2h27.5c1.1-26.5,13.8-51.4,34.6-67.8l-16.2-22.3C300.7,355.7,283.8,388.9,282.7,424.2z"/>
	</g>
	<g>
		<path class="st2" d="M376.6,101.7c-7.4-7.4-17.3-11.5-27.9-11.5c0,0,0,0,0,0c-17.8,0-32.3,14.5-32.3,32.3c0,7.1,2.8,13.8,7.8,18.8
			c5,5,11.7,7.8,18.8,7.8c0,0,0,0,0,0c12.2,0,22.1-9.9,22.1-22.1c0-10.2-8.3-18.5-18.5-18.5c-2.2,0-4,1.8-4,4s1.8,4,4,4
			c5.8,0,10.5,4.7,10.5,10.5c0,7.8-6.3,14.1-14.1,14.1c0,0,0,0,0,0c-5,0-9.7-1.9-13.2-5.5c-3.5-3.5-5.5-8.2-5.5-13.2
			c0-13.4,10.9-24.3,24.3-24.3c0,0,0,0,0,0c17.3,0,31.4,14.1,31.4,31.4c0,22.2-18.1,40.3-40.3,40.3h-51.1h-72.4h0H71.8h-4.1
			c-2.2,0-4,1.8-4,4s1.8,4,4,4h4.1h144.6c7.6,0,13.7,6.2,13.7,13.7c0,7.5-6.1,13.7-13.7,13.7c-2.2,0-4,1.8-4,4c0,2.2,1.8,4,4,4
			c0,0,0,0,0,0c11.9,0,21.7-9.7,21.7-21.7c0-5.2-1.8-10-4.9-13.7h55.6c17.2,0,31.3,14,31.3,31.3c0,6.5-2.5,12.6-7.1,17.1
			c-4.6,4.6-10.7,7.1-17.1,7.1c0,0,0,0,0,0c-10.2,0-18.6-8.3-18.6-18.6c0-7.8,6.3-14.1,14.1-14.1c5.8,0,10.5,4.7,10.5,10.4
			c0,2.2,1.8,4,4,4s4-1.8,4-4c0-10.2-8.3-18.4-18.5-18.4c-12.2,0-22.1,9.9-22.1,22.1c0,14.7,11.9,26.6,26.6,26.6c0,0,0,0,0,0
			c8.6,0,16.7-3.3,22.8-9.4c6.1-6.1,9.4-14.2,9.4-22.8c0-12.8-6.1-24.1-15.6-31.3h27.4c26.6,0,48.3-21.6,48.3-48.3
			C388.2,119,384.1,109.1,376.6,101.7z"/>
		<rect x="41.7" y="169.8" class="st2" width="13.3" height="8"/>
		<rect x="190.4" y="205.2" class="st2" width="13.3" height="8"/>
		<path class="st2" d="M177.8,205.2H95.9c-2.2,0-4,1.8-4,4s1.8,4,4,4h81.9c2.2,0,4-1.8,4-4S180,205.2,177.8,205.2z"/>
		<rect x="164.7" y="244.7" class="st2" width="13.3" height="8"/>
		<path class="st2" d="M242.2,244.7h-51.5c-2.2,0-4,1.8-4,4s1.8,4,4,4h51.5c2.2,0,4-1.8,4-4S244.4,244.7,242.2,244.7z"/>
		<path class="st2" d="M128.9,266.7c-0.3-0.1-0.6-0.1-0.9-0.1h-1.3c0,0,0,0,0,0h-22.9c3.1-3.7,4.9-8.5,4.9-13.7
			c0-12-9.7-21.7-21.7-21.7c-2.2,0-4,1.8-4,4s1.8,4,4,4c7.6,0,13.7,6.1,13.7,13.7s-6.1,13.7-13.7,13.7h-41c-2.2,0-4,1.8-4,4
			s1.8,4,4,4h80.6c3.7,0,7.1,1.4,9.7,4s4,6,4,9.7c0,7.5-6.1,13.7-13.7,13.7c-2.2,0-4,1.8-4,4c0,2.2,1.8,4,4,4c0,0,0,0,0,0
			c11.9,0,21.7-9.7,21.7-21.7C148.4,277.1,139.9,267.8,128.9,266.7z"/>
		<path class="st2" d="M119.5,150.8h132.8c21.5,0,39-17.5,39-39c0-17.6-14.4-32-32-32c-14.6,0-26.4,11.9-26.4,26.4
			c0,12.1,9.8,21.9,21.9,21.9c10.1,0,18.4-8.2,18.4-18.4c0-2.2-1.8-4-4-4s-4,1.8-4,4c0,5.7-4.6,10.4-10.4,10.4
			c-7.7,0-13.9-6.3-13.9-13.9c0-10.2,8.3-18.4,18.4-18.4c13.2,0,24,10.8,24,24c0,17.1-13.9,31-31,31H119.5c-2.2,0-4,1.8-4,4
			S117.3,150.8,119.5,150.8z"/>
		<rect x="93.5" y="142.8" class="st2" width="13.3" height="8"/>
	</g>
	<g>
		<path class="st3" d="M413,357.7c-23.8,23.8-62.3,23.8-86.1,0l0,0c-23.8-23.8-23.8-62.3,0-86.1l39.5-39.5
			c23.8-23.8,62.3-23.8,86.1,0l0,0c23.1,23.1,23.9,60.3,1.8,84.3L413,357.7z"/>
	</g>
	<g>
		<path class="st3" d="M218.5,381.7c-16.1,16.1-42.3,16.1-58.4,0l0,0c-16.1-16.1-16.1-42.3,0-58.4l26.8-26.8
			c16.1-16.1,42.3-16.1,58.4,0c0,0,0,0,0,0l0,0c15.7,15.6,16.2,40.9,1.2,57.1L218.5,381.7z"/>
	</g>
	<g>
		<path class="st4" d="M189.3,397.8c-11.6,0-23.2-4.4-32-13.2c-17.6-17.7-17.6-46.4,0-64.1l26.8-26.8c8.5-8.6,19.9-13.3,32-13.3
			c0,0,0,0,0,0c12.1,0,23.4,4.7,32,13.2c0,0,0,0,0,0c17.2,17.2,17.8,44.8,1.3,62.7c-1.5,1.6-4,1.7-5.7,0.2c-1.6-1.5-1.7-4-0.2-5.7
			c13.6-14.8,13.1-37.4-1.1-51.6c0,0,0,0,0,0c-7-7-16.4-10.9-26.4-10.9c0,0,0,0,0,0c-10,0-19.3,3.9-26.4,10.9l-26.8,26.8
			c-14.5,14.5-14.5,38.2,0,52.7c14.5,14.5,38.2,14.5,52.7,0l10.4-10.4c1.6-1.6,4.1-1.6,5.7,0c1.6,1.6,1.6,4.1,0,5.7l-10.4,10.4
			C212.5,393.4,200.9,397.8,189.3,397.8z"/>
	</g>
	<g>
		
			<rect x="232.3" y="358.5" transform="matrix(0.7071 -0.7071 0.7071 0.7071 -186.7373 274.2456)" class="st4" width="10.7" height="8"/>
	</g>
	<g>
		<path class="st4" d="M369.9,379.5c-16.6,0-33.2-6.3-45.9-19c-25.3-25.3-25.3-66.5,0-91.8l39.5-39.5c25.3-25.3,66.5-25.3,91.8,0
			c24.7,24.7,25.5,64.1,1.9,89.8c-1.5,1.6-4,1.7-5.7,0.2c-1.6-1.5-1.7-4-0.2-5.7c20.7-22.5,20-57.1-1.7-78.8
			c-22.2-22.2-58.3-22.2-80.5,0l-39.5,39.5c-22.2,22.2-22.2,58.3,0,80.5c22.2,22.2,58.3,22.2,80.5,0l15.3-15.3
			c1.6-1.6,4.1-1.6,5.7,0c1.6,1.6,1.6,4.1,0,5.7l-15.3,15.3C403.2,373.1,386.6,379.5,369.9,379.5z"/>
	</g>
	<g>
		
			<rect x="433.4" y="325.3" transform="matrix(0.7071 -0.7071 0.7071 0.7071 -103.6306 408.4933)" class="st4" width="15.8" height="8"/>
	</g>
</g>
</svg>
